HIERARCHY
ROOT Hips
{
  OFFSET 5.84602e-005 68.8428 3.50346
  CHANNELS 6 Xposition Yposition Zposition Zrotation Xrotation Yrotation
  JOINT Spine
  {
    OFFSET 0 8.597 -4.6522
    CHANNELS 3 Zrotation Xrotation Yrotation
    JOINT Spine1
    {
      OFFSET 0 7.8454 0.4098
      CHANNELS 3 Zrotation Xrotation Yrotation
      JOINT Spine2
      {
        OFFSET 0 9.7078 -2.1609
        CHANNELS 3 Zrotation Xrotation Yrotation
        JOINT Neck
        {
          OFFSET 0 21.8761 -0.4549
          CHANNELS 3 Zrotation Xrotation Yrotation
          JOINT Head
          {
            OFFSET 0 12.3537 3.3602
            CHANNELS 3 Zrotation Xrotation Yrotation
            End Site
            {
              OFFSET 0.0001 18.9506 0.5657
            }
          }
        }
        JOINT LeftShoulder
        {
          OFFSET 2.2086 21.1115 7.2329
          CHANNELS 3 Zrotation Xrotation Yrotation
          JOINT LeftArm
          {
            OFFSET 13.1193 3.0282 -4.8998
            CHANNELS 3 Zrotation Xrotation Yrotation
            JOINT LeftForeArm
            {
              OFFSET 27.4081 -0.0973053 -0.2375
              CHANNELS 3 Zrotation Xrotation Yrotation
              JOINT LeftHand
              {
                OFFSET 22.8641 0.0662994 -0.1369
                CHANNELS 3 Zrotation Xrotation Yrotation
                JOINT LeftHandIndex1
                {
                  OFFSET 8.8614 0.775009 2.4612
                  CHANNELS 3 Zrotation Xrotation Yrotation
                  JOINT LeftHandIndex2
                  {
                    OFFSET 3.3146 -0.808304 0.5841
                    CHANNELS 3 Zrotation Xrotation Yrotation
                    JOINT LeftHandIndex3
                    {
                      OFFSET 2.2628 -0.552002 0.3989
                      CHANNELS 3 Zrotation Xrotation Yrotation
                      End Site
                      {
                        OFFSET 1.6102 -0.4807 0.2612
                      }
                    }
                  }
                }
                JOINT LeftHandMiddle1
                {
                  OFFSET 8.9937 0.895004 0.2143
                  CHANNELS 3 Zrotation Xrotation Yrotation
                  JOINT LeftHandMiddle2
                  {
                    OFFSET 4.0984 0.0113983 -0.0242
                    CHANNELS 3 Zrotation Xrotation Yrotation
                    JOINT LeftHandMiddle3
                    {
                      OFFSET 2.2716 0.00689697 -0.0138001
                      CHANNELS 3 Zrotation Xrotation Yrotation
                      End Site
                      {
                        OFFSET 2.0404 -0.1441 0.0027
                      }
                    }
                  }
                }
                JOINT LeftHandRing1
                {
                  OFFSET 8.5234 0.597198 -2.0164
                  CHANNELS 3 Zrotation Xrotation Yrotation
                  JOINT LeftHandRing2
                  {
                    OFFSET 3.7188 -0.188293 -0.2328
                    CHANNELS 3 Zrotation Xrotation Yrotation
                    JOINT LeftHandRing3
                    {
                      OFFSET 2.1191 -0.106598 -0.1332
                      CHANNELS 3 Zrotation Xrotation Yrotation
                      End Site
                      {
                        OFFSET 1.8737 -0.2304 -0.0886
                      }
                    }
                  }
                }
                JOINT LeftHandPinky1
                {
                  OFFSET 7.9094 -0.601089 -3.4825
                  CHANNELS 3 Zrotation Xrotation Yrotation
                  JOINT LeftHandPinky2
                  {
                    OFFSET 2.2874 -0.477005 -0.6314
                    CHANNELS 3 Zrotation Xrotation Yrotation
                    JOINT LeftHandPinky3
                    {
                      OFFSET 1.6774 -0.349396 -0.4633
                      CHANNELS 3 Zrotation Xrotation Yrotation
                      End Site
                      {
                        OFFSET 1.4888 -0.4091 -0.3416
                      }
                    }
                  }
                }
                JOINT LeftHandThumb1
                {
                  OFFSET 1.833 -1.3875 1.3896
                  CHANNELS 3 Zrotation Xrotation Yrotation
                  JOINT LeftHandThumb2
                  {
                    OFFSET 3.4129 -1.121 2.5732
                    CHANNELS 3 Zrotation Xrotation Yrotation
                    JOINT LeftHandThumb3
                    {
                      OFFSET 2.2474 -0.804199 1.6192
                      CHANNELS 3 Zrotation Xrotation Yrotation
                      End Site
                      {
                        OFFSET 1.6527 -0.5689 1.1317
                      }
                    }
                  }
                }
              }
            }
          }
        }
        JOINT RightShoulder
        {
          OFFSET -2.2086 21.1115 7.2329
          CHANNELS 3 Zrotation Xrotation Yrotation
          JOINT RightArm
          {
            OFFSET -13.1216 3.0287 -4.9007
            CHANNELS 3 Zrotation Xrotation Yrotation
            JOINT RightForeArm
            {
              OFFSET -27.4081 -0.0973053 -0.2375
              CHANNELS 3 Zrotation Xrotation Yrotation
              JOINT RightHand
              {
                OFFSET -22.8641 0.0664063 -0.1369
                CHANNELS 3 Zrotation Xrotation Yrotation
                JOINT RightHandIndex1
                {
                  OFFSET -8.8614 0.774994 2.4612
                  CHANNELS 3 Zrotation Xrotation Yrotation
                  JOINT RightHandIndex2
                  {
                    OFFSET -3.3146 -0.808304 0.5841
                    CHANNELS 3 Zrotation Xrotation Yrotation
                    JOINT RightHandIndex3
                    {
                      OFFSET -2.2628 -0.552002 0.3989
                      CHANNELS 3 Zrotation Xrotation Yrotation
                      End Site
                      {
                        OFFSET -1.6102 -0.4807 0.2612
                      }
                    }
                  }
                }
                JOINT RightHandMiddle1
                {
                  OFFSET -8.9937 0.894989 0.2143
                  CHANNELS 3 Zrotation Xrotation Yrotation
                  JOINT RightHandMiddle2
                  {
                    OFFSET -4.0984 0.0113983 -0.0242
                    CHANNELS 3 Zrotation Xrotation Yrotation
                    JOINT RightHandMiddle3
                    {
                      OFFSET -2.2716 0.00691223 -0.0138001
                      CHANNELS 3 Zrotation Xrotation Yrotation
                      End Site
                      {
                        OFFSET -2.0404 -0.1441 0.0027
                      }
                    }
                  }
                }
                JOINT RightHandRing1
                {
                  OFFSET -8.5234 0.597198 -2.0164
                  CHANNELS 3 Zrotation Xrotation Yrotation
                  JOINT RightHandRing2
                  {
                    OFFSET -3.7188 -0.188309 -0.2328
                    CHANNELS 3 Zrotation Xrotation Yrotation
                    JOINT RightHandRing3
                    {
                      OFFSET -2.1191 -0.106598 -0.1332
                      CHANNELS 3 Zrotation Xrotation Yrotation
                      End Site
                      {
                        OFFSET -1.8737 -0.2304 -0.0886
                      }
                    }
                  }
                }
                JOINT RightHandPinky1
                {
                  OFFSET -7.9094 -0.601105 -3.4825
                  CHANNELS 3 Zrotation Xrotation Yrotation
                  JOINT RightHandPinky2
                  {
                    OFFSET -2.2874 -0.477005 -0.6314
                    CHANNELS 3 Zrotation Xrotation Yrotation
                    JOINT RightHandPinky3
                    {
                      OFFSET -1.6774 -0.349396 -0.4633
                      CHANNELS 3 Zrotation Xrotation Yrotation
                      End Site
                      {
                        OFFSET -1.4888 -0.4091 -0.3416
                      }
                    }
                  }
                }
                JOINT RightHandThumb1
                {
                  OFFSET -1.833 -1.38751 1.3896
                  CHANNELS 3 Zrotation Xrotation Yrotation
                  JOINT RightHandThumb2
                  {
                    OFFSET -3.41299 -1.12099 2.5732
                    CHANNELS 3 Zrotation Xrotation Yrotation
                    JOINT RightHandThumb3
                    {
                      OFFSET -2.24741 -0.804108 1.6192
                      CHANNELS 3 Zrotation Xrotation Yrotation
                      End Site
                      {
                        OFFSET -1.6527 -0.5689 1.1317
                      }
                    }
                  }
                }
              }
            }
          }
        }
      }
    }
  }
  JOINT RightUpLeg
  {
    OFFSET -9.1966 3.8861 -0.7581
    CHANNELS 3 Zrotation Xrotation Yrotation
    JOINT RightLeg
    {
      OFFSET -0.7359 -41.0265 0
      CHANNELS 3 Zrotation Xrotation Yrotation
      JOINT RightFoot
      {
        OFFSET 0 -40.2855 0
        CHANNELS 3 Zrotation Xrotation Yrotation
        JOINT RightToeBase
        {
          OFFSET 0 -5.6122 11.7359
          CHANNELS 3 Zrotation Xrotation Yrotation
          End Site
          {
            OFFSET 0 0 7.8731
          }
        }
      }
    }
  }
  JOINT LeftUpLeg
  {
    OFFSET 9.1965 3.8864 -0.7581
    CHANNELS 3 Zrotation Xrotation Yrotation
    JOINT LeftLeg
    {
      OFFSET 0.7359 -41.0268 0
      CHANNELS 3 Zrotation Xrotation Yrotation
      JOINT LeftFoot
      {
        OFFSET 0 -40.2855 0
        CHANNELS 3 Zrotation Xrotation Yrotation
        JOINT LeftToeBase
        {
          OFFSET 0 -5.6122 11.7359
          CHANNELS 3 Zrotation Xrotation Yrotation
          End Site
          {
            OFFSET 0 0 7.8731
          }
        }
      }
    }
  }
}
MOTION
Frames:	4
Frame Time:	0.0333333
-0.733887 64.993 8.63114 -0 -4.86679 -0 -0.25866 2.78215 -0.133509 -0.511727 5.56483 -0.254878 -0.511727 5.56483 -0.254878 2.49206e-005 -5.85228 -1.77695e-006 -1.88396e-007 -0.267537 -8.93514e-008 -13.245 14.0009 -5.19906 -52.3682 35.217 -34.4964 -12.503 -23.0181 -29.4262 -7.00034 -7.54215e-006 -1.97178e-008 -1.9513e-006 -3.45364e-006 1.15115e-006 -5.02751e-008 8.0983e-008 1.28608e-007 1.67584e-008 -2.69943e-008 -4.28694e-008 -1.9513e-006 -3.45364e-006 1.15115e-006 -0.0146206 -8.88221e-005 -5.3258e-006 1.67584e-008 -2.69888e-008 -4.28729e-008 -1.9513e-006 -3.45364e-006 1.15115e-006 -0.0187642 -0.00117843 6.23425e-005 1.6758e-008 -2.69873e-008 -4.2874e-008 -1.9513e-006 -3.45364e-006 1.15115e-006 -0.0122855 -0.00325425 0.000678054 1.6757e-008 -2.69898e-008 -4.28728e-008 -1.9513e-006 -3.45364e-006 1.15115e-006 -5.02751e-008 8.0983e-008 1.28608e-007 1.67584e-008 -2.69943e-008 -4.28694e-008 12.9884 13.9363 5.1912 52.4028 35.2765 34.5182 12.5097 -23.0322 29.4695 6.99682 9.70289e-007 1.28089e-006 1.15431e-007 1.97604e-007 -2.95204e-007 1.89816e-006 -1.39768e-006 -5.10763e-007 2.14391e-006 2.0905e-008 -6.25799e-007 1.15431e-007 1.97604e-007 -2.95204e-007 0.0149941 -9.06467e-005 -1.57452e-008 2.16172e-006 4.90389e-008 -6.67979e-007 1.15431e-007 1.97604e-007 -2.95204e-007 0.0189893 -0.00119199 -6.13148e-005 2.16206e-006 4.892e-008 -6.68007e-007 1.15431e-007 1.97604e-007 -2.95204e-007 0.0122807 -0.00325045 -0.00067773 3.62753e-007 6.20944e-007 -9.2786e-007 1.15431e-007 1.97604e-007 -2.95204e-007 1.89816e-006 -1.39768e-006 -5.10763e-007 2.14391e-006 2.0905e-008 -6.25799e-007 -0.69209 1.80239 -11.6481 3.56303 25.6203 -1.32751 11.5202 -21.7956 -2.22971 -6.66204e-008 3.91732e-007 -4.76553e-008 14.2102 -6.86164 15.1984 4.07168 27.0056 -3.48752 -12.5303 -21.801 1.76917 -8.82781e-032 1.59028e-015 3.18055e-015 
-0.733863 65.0024 8.7134 -0 -5.00071 -0 -0.258378 2.69723 -0.133412 -0.51131 5.39511 -0.255054 -0.51131 5.3951 -0.255054 9.29847e-006 -6.00202 3.19535e-006 1.15381e-007 -0.267538 6.37159e-008 -13.3866 14.3931 -5.21024 -52.2847 35.1651 -34.4371 -12.4392 -23.0507 -29.3601 -7.00033 1.87604e-006 -5.4087e-006 -4.87977e-007 7.83268e-007 1.24216e-006 -8.46746e-008 -2.57926e-006 1.98559e-006 -2.01922e-007 3.24111e-007 5.13997e-007 -4.87977e-007 7.83268e-007 1.24216e-006 -0.0145895 -8.81763e-005 -3.71e-006 -2.01922e-007 3.24045e-007 5.14039e-007 -4.87977e-007 7.83268e-007 1.24216e-006 -0.0187382 -0.00117933 6.64582e-005 -2.01917e-007 3.24027e-007 5.14052e-007 -4.87977e-007 7.83268e-007 1.24216e-006 -0.0122668 -0.00324847 0.000675798 -2.01905e-007 3.24057e-007 5.14038e-007 -4.87977e-007 7.83268e-007 1.24216e-006 -8.46746e-008 -2.57926e-006 1.98559e-006 -2.01922e-007 3.24111e-007 5.13997e-007 13.1229 14.3267 5.20322 52.3203 35.2263 34.4597 12.4462 -23.0652 29.4046 6.99681 7.12566e-006 3.89833e-006 1.32451e-007 2.25946e-007 -3.37091e-007 1.49007e-007 2.5419e-007 -3.79227e-007 6.62253e-008 1.12973e-007 -1.68546e-007 1.32451e-007 2.25946e-007 -3.37091e-007 0.0150102 -9.40455e-005 -1.50905e-006 6.62253e-008 1.12951e-007 -1.6856e-007 1.32451e-007 2.25946e-007 -3.37091e-007 0.0190209 -0.00119509 -5.86214e-005 6.62237e-008 1.12945e-007 -1.68565e-007 1.32451e-007 2.25946e-007 -3.37091e-007 0.0122745 -0.00324956 -0.000674747 6.622e-008 1.12955e-007 -1.68559e-007 1.32451e-007 2.25946e-007 -3.37091e-007 1.49007e-007 2.5419e-007 -3.79227e-007 6.62253e-008 1.12973e-007 -1.68546e-007 -0.690073 2.01239 -11.6373 3.5626 25.6293 -1.32799 11.52 -21.7975 -2.22953 -8.88356e-009 5.22316e-008 -6.34857e-009 14.2114 -6.67488 15.1938 4.07188 27.008 -3.48767 -12.5303 -21.8017 1.76909 -1.39096e-007 -4.14406e-008 -1.6797e-006 
-0.733887 64.993 8.63114 -0 -4.86679 -0 -0.25866 2.78215 -0.133509 -0.511727 5.56483 -0.254878 -0.511727 5.56483 -0.254878 2.64902e-005 -5.85229 -1.73564e-006 1.90241e-007 -0.267537 -2.06084e-007 -13.245 14.0009 -5.19906 -52.3683 35.217 -34.4964 -12.503 -23.0181 -29.4262 -7.00034 -8.30935e-007 -3.68271e-006 -2.17859e-007 3.50926e-007 5.57303e-007 1.50825e-007 -2.42949e-007 -3.85825e-007 -1.59028e-015 0 3.18055e-015 -2.17859e-007 3.50926e-007 5.57303e-007 -0.0146215 -9.01093e-005 -1.28354e-006 -3.18055e-015 -6.36111e-015 -0 -2.17859e-007 3.50926e-007 5.57303e-007 -0.0187573 -0.00117795 5.91159e-005 -3.18055e-015 0 -1.90833e-014 -2.17859e-007 3.50926e-007 5.57303e-007 -0.0122827 -0.00325766 0.000678172 1.42006e-006 1.54265e-006 -4.35232e-007 -2.17859e-007 3.50926e-007 5.57303e-007 1.50825e-007 -2.42949e-007 -3.85825e-007 -1.59028e-015 0 3.18055e-015 12.9884 13.9363 5.1912 52.4028 35.2765 34.5182 12.5097 -23.0322 29.4695 6.99681 5.57961e-006 -2.811e-006 2.30861e-007 3.95208e-007 -5.90407e-007 2.14371e-007 3.66979e-007 -5.48236e-007 -1.64901e-008 -2.82292e-008 4.2172e-008 2.30861e-007 3.95208e-007 -5.90407e-007 0.015002 -9.00716e-005 5.85185e-007 -1.64901e-008 -2.82236e-008 4.21756e-008 2.30861e-007 3.95208e-007 -5.90407e-007 0.0189841 -0.00118802 -6.14377e-005 -1.64897e-008 -2.82222e-008 4.21768e-008 2.30861e-007 3.95208e-007 -5.90407e-007 0.0122477 -0.00324055 -0.000674218 -1.81519e-006 5.43927e-007 -2.17587e-007 2.30861e-007 3.95208e-007 -5.90407e-007 2.14371e-007 3.66979e-007 -5.48236e-007 -1.64901e-008 -2.82292e-008 4.2172e-008 -0.69209 1.80239 -11.6481 3.56303 25.6203 -1.3275 11.5202 -21.7956 -2.22971 -2.22068e-008 1.30577e-007 -1.58851e-008 14.2102 -6.86169 15.1984 4.07168 27.0057 -3.48752 -12.5303 -21.8011 1.76916 -6.29901e-007 1.01276e-007 5.2443e-008 
-0.733925 64.9773 8.494 -0 -4.6436 -0 -0.259138 2.92368 -0.133685 -0.512437 5.84803 -0.254607 -0.512438 5.84803 -0.254607 1.55231e-006 -5.60181 -1.05007e-006 4.25717e-007 -0.267536 -1.42191e-007 -13.0089 13.3471 -5.17956 -52.5074 35.3035 -34.5952 -12.6093 -22.9636 -29.5364 -7.00033 -4.39578e-006 4.14312e-006 -1.99742e-007 3.23633e-007 5.15152e-007 -2.49678e-007 4.04541e-007 6.4394e-007 1.33161e-007 -2.15755e-007 -3.43435e-007 -1.99742e-007 3.23633e-007 5.15152e-007 -0.0146285 -9.11395e-005 -2.8049e-006 1.24839e-007 -2.02229e-007 -3.21996e-007 -1.99742e-007 3.23633e-007 5.15152e-007 -0.0187665 -0.00118146 6.36963e-005 1.24836e-007 -2.02218e-007 -3.22004e-007 -1.99742e-007 3.23633e-007 5.15152e-007 -0.0123103 -0.00325611 0.000675733 1.24829e-007 -2.02236e-007 -3.21995e-007 -1.99742e-007 3.23633e-007 5.15152e-007 -2.49678e-007 4.04541e-007 6.4394e-007 1.33161e-007 -2.15755e-007 -3.43435e-007 12.7642 13.2855 5.17034 52.5402 35.3601 34.6159 12.6155 -22.9771 29.5774 6.99682 -3.39474e-006 1.34102e-006 1.89219e-006 -4.44029e-007 3.13423e-008 1.14663e-007 1.97439e-007 -2.95615e-007 1.63805e-007 2.82055e-007 -4.22307e-007 1.89219e-006 -4.44029e-007 3.13423e-008 0.0149998 -8.98986e-005 -2.68577e-007 1.63805e-007 2.82e-007 -4.22344e-007 1.89219e-006 -4.44029e-007 3.13423e-008 0.0189866 -0.0011912 -6.32457e-005 1.63801e-007 2.81985e-007 -4.22356e-007 1.89219e-006 -4.44029e-007 3.13423e-008 0.0122777 -0.00325343 -0.000675182 1.97517e-006 -3.03295e-007 -1.79894e-007 1.89219e-006 -4.44029e-007 3.13423e-008 1.14663e-007 1.97439e-007 -2.95615e-007 1.63805e-007 2.82055e-007 -4.22307e-007 -0.695463 1.43633 -11.666 3.56097 25.6213 -1.32808 11.5204 -21.7929 -2.22996 -8.71202e-007 6.68174e-008 -2.14971e-008 14.2082 -7.173 15.2063 4.07132 27.0018 -3.48726 -12.5302 -21.8 1.76931 4.19949e-007 -6.72694e-008 -3.52753e-008 
